<?xml version="1.0" encoding="utf-8"?>
<svg viewBox="0 0 24 24" xmlns="http://www.w3.org/2000/svg">
  <path d="M 5.816 14.623 Q 5.192 14.623 4.692 14.335 Q 4.192 14.047 3.9 13.547 Q 3.608 13.047 3.6 12.423 L 3.6 8.647 Q 3.6 8.503 3.684 8.419 Q 3.768 8.335 3.912 8.335 Q 4.048 8.335 4.132 8.419 Q 4.216 8.503 4.216 8.647 L 4.216 10.999 Q 4.48 10.623 4.916 10.395 Q 5.352 10.167 5.888 10.167 Q 6.504 10.167 6.992 10.459 Q 7.48 10.751 7.764 11.255 Q 8.048 11.759 8.048 12.391 Q 8.048 13.031 7.756 13.535 Q 7.464 14.039 6.96 14.331 Q 6.456 14.623 5.816 14.623 Z M 5.816 14.063 Q 6.28 14.063 6.648 13.843 Q 7.016 13.623 7.228 13.247 Q 7.44 12.871 7.44 12.391 Q 7.44 11.919 7.228 11.539 Q 7.016 11.159 6.648 10.943 Q 6.28 10.727 5.816 10.727 Q 5.36 10.727 4.992 10.943 Q 4.624 11.159 4.416 11.539 Q 4.208 11.919 4.208 12.391 Q 4.208 12.871 4.416 13.247 Q 4.624 13.623 4.992 13.843 Q 5.36 14.063 5.816 14.063 Z" style="fill: rgb(214, 78, 78); paint-order: fill; white-space: pre;"/>
  <path d="M 10.192 14.583 Q 9.872 14.583 9.62 14.407 Q 9.368 14.231 9.228 13.919 Q 9.088 13.607 9.088 13.199 L 9.088 8.639 Q 9.088 8.503 9.172 8.419 Q 9.256 8.335 9.392 8.335 Q 9.528 8.335 9.612 8.419 Q 9.696 8.503 9.696 8.639 L 9.696 13.199 Q 9.696 13.543 9.836 13.759 Q 9.976 13.975 10.192 13.975 L 10.392 13.975 Q 10.512 13.975 10.584 14.059 Q 10.656 14.143 10.656 14.279 Q 10.656 14.415 10.556 14.499 Q 10.456 14.583 10.296 14.583 Z" style="fill: rgb(214, 78, 78); paint-order: fill; white-space: pre;"/>
  <path d="M 13.41 14.631 Q 12.842 14.631 12.394 14.395 Q 11.946 14.159 11.686 13.703 Q 11.426 13.247 11.426 12.591 L 11.426 10.511 Q 11.426 10.383 11.514 10.295 Q 11.602 10.207 11.73 10.207 Q 11.866 10.207 11.954 10.295 Q 12.042 10.383 12.042 10.511 L 12.042 12.591 Q 12.042 13.087 12.23 13.407 Q 12.418 13.727 12.742 13.887 Q 13.066 14.047 13.474 14.047 Q 13.866 14.047 14.182 13.895 Q 14.498 13.743 14.682 13.479 Q 14.866 13.215 14.866 12.879 L 15.306 12.879 Q 15.282 13.383 15.03 13.779 Q 14.778 14.175 14.354 14.403 Q 13.93 14.631 13.41 14.631 Z M 15.17 14.583 Q 15.034 14.583 14.95 14.499 Q 14.866 14.415 14.866 14.271 L 14.866 10.511 Q 14.866 10.375 14.95 10.291 Q 15.034 10.207 15.17 10.207 Q 15.306 10.207 15.394 10.291 Q 15.482 10.375 15.482 10.511 L 15.482 14.271 Q 15.482 14.415 15.394 14.499 Q 15.306 14.583 15.17 14.583 Z" style="fill: rgb(214, 78, 78); paint-order: fill; white-space: pre;"/>
  <path d="M 18.904 14.623 Q 18.256 14.623 17.756 14.339 Q 17.256 14.055 16.972 13.551 Q 16.688 13.047 16.688 12.399 Q 16.688 11.743 16.956 11.243 Q 17.224 10.743 17.696 10.455 Q 18.168 10.167 18.784 10.167 Q 19.392 10.167 19.844 10.443 Q 20.296 10.719 20.544 11.207 Q 20.792 11.695 20.792 12.319 Q 20.792 12.447 20.712 12.523 Q 20.632 12.599 20.504 12.599 L 17.104 12.599 L 17.104 12.087 L 20.568 12.087 L 20.224 12.335 Q 20.232 11.871 20.056 11.503 Q 19.88 11.135 19.556 10.927 Q 19.232 10.719 18.784 10.719 Q 18.328 10.719 17.984 10.935 Q 17.64 11.151 17.452 11.531 Q 17.264 11.911 17.264 12.399 Q 17.264 12.887 17.476 13.263 Q 17.688 13.639 18.056 13.855 Q 18.424 14.071 18.904 14.071 Q 19.192 14.071 19.484 13.971 Q 19.776 13.871 19.952 13.719 Q 20.04 13.647 20.152 13.643 Q 20.264 13.639 20.344 13.703 Q 20.448 13.799 20.452 13.911 Q 20.456 14.023 20.36 14.103 Q 20.096 14.327 19.688 14.475 Q 19.28 14.623 18.904 14.623 Z" style="fill: rgb(214, 78, 78); paint-order: fill; white-space: pre;"/>
</svg>