<?xml version="1.0" encoding="utf-8"?>
<svg viewBox="0 0 24 24" xmlns="http://www.w3.org/2000/svg">
  <path d="M 5.816 14.627 Q 5.192 14.627 4.692 14.339 Q 4.192 14.051 3.9 13.551 Q 3.608 13.051 3.6 12.427 L 3.6 8.651 Q 3.6 8.507 3.684 8.423 Q 3.768 8.339 3.912 8.339 Q 4.048 8.339 4.132 8.423 Q 4.216 8.507 4.216 8.651 L 4.216 11.003 Q 4.48 10.627 4.916 10.399 Q 5.352 10.171 5.888 10.171 Q 6.504 10.171 6.992 10.463 Q 7.48 10.755 7.764 11.259 Q 8.048 11.763 8.048 12.395 Q 8.048 13.035 7.756 13.539 Q 7.464 14.043 6.96 14.335 Q 6.456 14.627 5.816 14.627 Z M 5.816 14.067 Q 6.28 14.067 6.648 13.847 Q 7.016 13.627 7.228 13.251 Q 7.44 12.875 7.44 12.395 Q 7.44 11.923 7.228 11.543 Q 7.016 11.163 6.648 10.947 Q 6.28 10.731 5.816 10.731 Q 5.36 10.731 4.992 10.947 Q 4.624 11.163 4.416 11.543 Q 4.208 11.923 4.208 12.395 Q 4.208 12.875 4.416 13.251 Q 4.624 13.627 4.992 13.847 Q 5.36 14.067 5.816 14.067 Z" style="fill: rgb(214, 78, 78); paint-order: fill; white-space: pre;"/>
  <path d="M 10.192 14.587 Q 9.872 14.587 9.62 14.411 Q 9.368 14.235 9.228 13.923 Q 9.088 13.611 9.088 13.203 L 9.088 8.643 Q 9.088 8.507 9.172 8.423 Q 9.256 8.339 9.392 8.339 Q 9.528 8.339 9.612 8.423 Q 9.696 8.507 9.696 8.643 L 9.696 13.203 Q 9.696 13.547 9.836 13.763 Q 9.976 13.979 10.192 13.979 L 10.392 13.979 Q 10.512 13.979 10.584 14.063 Q 10.656 14.147 10.656 14.283 Q 10.656 14.419 10.556 14.503 Q 10.456 14.587 10.296 14.587 Z" style="fill: rgb(214, 78, 78); paint-order: fill; white-space: pre;"/>
  <path d="M 13.41 14.635 Q 12.842 14.635 12.394 14.399 Q 11.946 14.163 11.686 13.707 Q 11.426 13.251 11.426 12.595 L 11.426 10.515 Q 11.426 10.387 11.514 10.299 Q 11.602 10.211 11.73 10.211 Q 11.866 10.211 11.954 10.299 Q 12.042 10.387 12.042 10.515 L 12.042 12.595 Q 12.042 13.091 12.23 13.411 Q 12.418 13.731 12.742 13.891 Q 13.066 14.051 13.474 14.051 Q 13.866 14.051 14.182 13.899 Q 14.498 13.747 14.682 13.483 Q 14.866 13.219 14.866 12.883 L 15.306 12.883 Q 15.282 13.387 15.03 13.783 Q 14.778 14.179 14.354 14.407 Q 13.93 14.635 13.41 14.635 Z M 15.17 14.587 Q 15.034 14.587 14.95 14.503 Q 14.866 14.419 14.866 14.275 L 14.866 10.515 Q 14.866 10.379 14.95 10.295 Q 15.034 10.211 15.17 10.211 Q 15.306 10.211 15.394 10.295 Q 15.482 10.379 15.482 10.515 L 15.482 14.275 Q 15.482 14.419 15.394 14.503 Q 15.306 14.587 15.17 14.587 Z" style="fill: rgb(214, 78, 78); paint-order: fill; white-space: pre;"/>
  <path d="M 18.904 14.627 Q 18.256 14.627 17.756 14.343 Q 17.256 14.059 16.972 13.555 Q 16.688 13.051 16.688 12.403 Q 16.688 11.747 16.956 11.247 Q 17.224 10.747 17.696 10.459 Q 18.168 10.171 18.784 10.171 Q 19.392 10.171 19.844 10.447 Q 20.296 10.723 20.544 11.211 Q 20.792 11.699 20.792 12.323 Q 20.792 12.451 20.712 12.527 Q 20.632 12.603 20.504 12.603 L 17.104 12.603 L 17.104 12.091 L 20.568 12.091 L 20.224 12.339 Q 20.232 11.875 20.056 11.507 Q 19.88 11.139 19.556 10.931 Q 19.232 10.723 18.784 10.723 Q 18.328 10.723 17.984 10.939 Q 17.64 11.155 17.452 11.535 Q 17.264 11.915 17.264 12.403 Q 17.264 12.891 17.476 13.267 Q 17.688 13.643 18.056 13.859 Q 18.424 14.075 18.904 14.075 Q 19.192 14.075 19.484 13.975 Q 19.776 13.875 19.952 13.723 Q 20.04 13.651 20.152 13.647 Q 20.264 13.643 20.344 13.707 Q 20.448 13.803 20.452 13.915 Q 20.456 14.027 20.36 14.107 Q 20.096 14.331 19.688 14.479 Q 19.28 14.627 18.904 14.627 Z" style="fill: rgb(214, 78, 78); paint-order: fill; white-space: pre;"/>
  <path d="M 12.253 18.658 Q 12.105 18.658 11.96 18.608 Q 11.815 18.558 11.725 18.458 Q 11.698 18.428 11.703 18.391 Q 11.708 18.353 11.74 18.326 Q 11.775 18.301 11.813 18.306 Q 11.85 18.311 11.875 18.338 Q 11.935 18.408 12.034 18.446 Q 12.133 18.483 12.253 18.483 Q 12.438 18.483 12.52 18.42 Q 12.603 18.356 12.605 18.266 Q 12.605 18.176 12.52 18.117 Q 12.435 18.058 12.24 18.026 Q 11.988 17.986 11.87 17.886 Q 11.753 17.786 11.753 17.648 Q 11.753 17.521 11.82 17.436 Q 11.888 17.351 12 17.308 Q 12.113 17.266 12.248 17.266 Q 12.415 17.266 12.536 17.323 Q 12.658 17.381 12.733 17.478 Q 12.758 17.511 12.753 17.546 Q 12.748 17.581 12.713 17.603 Q 12.683 17.621 12.644 17.615 Q 12.605 17.608 12.578 17.578 Q 12.515 17.506 12.433 17.472 Q 12.35 17.438 12.243 17.438 Q 12.105 17.438 12.023 17.495 Q 11.94 17.551 11.94 17.636 Q 11.94 17.693 11.971 17.736 Q 12.003 17.778 12.079 17.811 Q 12.155 17.843 12.293 17.866 Q 12.48 17.896 12.589 17.955 Q 12.698 18.013 12.744 18.092 Q 12.79 18.171 12.79 18.263 Q 12.79 18.381 12.721 18.47 Q 12.653 18.558 12.531 18.608 Q 12.41 18.658 12.253 18.658 Z" style="fill: rgb(51, 51, 51); white-space: pre;"/>
  <path d="M 14.291 18.646 Q 14.249 18.646 14.221 18.618 Q 14.194 18.591 14.194 18.551 L 14.194 17.901 Q 14.194 17.746 14.135 17.646 Q 14.076 17.546 13.975 17.496 Q 13.874 17.446 13.746 17.446 Q 13.624 17.446 13.525 17.493 Q 13.426 17.541 13.369 17.623 Q 13.311 17.706 13.311 17.811 L 13.174 17.811 Q 13.179 17.653 13.259 17.53 Q 13.339 17.406 13.471 17.335 Q 13.604 17.263 13.766 17.263 Q 13.944 17.263 14.084 17.337 Q 14.224 17.411 14.305 17.553 Q 14.386 17.696 14.386 17.901 L 14.386 18.551 Q 14.386 18.591 14.359 18.618 Q 14.331 18.646 14.291 18.646 Z M 13.216 18.646 Q 13.171 18.646 13.145 18.62 Q 13.119 18.593 13.119 18.551 L 13.119 17.376 Q 13.119 17.331 13.145 17.305 Q 13.171 17.278 13.216 17.278 Q 13.259 17.278 13.285 17.305 Q 13.311 17.331 13.311 17.376 L 13.311 18.551 Q 13.311 18.593 13.285 18.62 Q 13.259 18.646 13.216 18.646 Z" style="fill: rgb(51, 51, 51); white-space: pre;"/>
  <path d="M 15.417 18.658 Q 15.224 18.658 15.072 18.567 Q 14.919 18.476 14.83 18.318 Q 14.742 18.161 14.742 17.963 Q 14.742 17.763 14.833 17.606 Q 14.924 17.448 15.082 17.357 Q 15.239 17.266 15.437 17.266 Q 15.634 17.266 15.79 17.357 Q 15.947 17.448 16.038 17.606 Q 16.129 17.763 16.132 17.963 L 16.054 18.023 Q 16.054 18.203 15.97 18.347 Q 15.887 18.491 15.743 18.575 Q 15.599 18.658 15.417 18.658 Z M 15.437 18.483 Q 15.582 18.483 15.695 18.416 Q 15.809 18.348 15.875 18.23 Q 15.942 18.111 15.942 17.963 Q 15.942 17.813 15.875 17.696 Q 15.809 17.578 15.695 17.51 Q 15.582 17.441 15.437 17.441 Q 15.294 17.441 15.179 17.51 Q 15.064 17.578 14.997 17.696 Q 14.929 17.813 14.929 17.963 Q 14.929 18.111 14.997 18.23 Q 15.064 18.348 15.179 18.416 Q 15.294 18.483 15.437 18.483 Z M 16.034 18.646 Q 15.992 18.646 15.964 18.62 Q 15.937 18.593 15.937 18.551 L 15.937 18.123 L 15.984 17.926 L 16.132 17.963 L 16.132 18.551 Q 16.132 18.593 16.104 18.62 Q 16.077 18.646 16.034 18.646 Z" style="fill: rgb(51, 51, 51); white-space: pre;"/>
  <path d="M 16.599 19.231 Q 16.554 19.231 16.528 19.205 Q 16.502 19.178 16.502 19.133 L 16.502 17.953 Q 16.504 17.758 16.595 17.602 Q 16.687 17.446 16.843 17.356 Q 16.999 17.266 17.194 17.266 Q 17.394 17.266 17.552 17.357 Q 17.709 17.448 17.8 17.606 Q 17.892 17.763 17.892 17.963 Q 17.892 18.161 17.803 18.318 Q 17.714 18.476 17.562 18.567 Q 17.409 18.658 17.217 18.658 Q 17.049 18.658 16.913 18.587 Q 16.777 18.516 16.694 18.398 L 16.694 19.133 Q 16.694 19.178 16.668 19.205 Q 16.642 19.231 16.599 19.231 Z M 17.194 18.483 Q 17.339 18.483 17.454 18.416 Q 17.569 18.348 17.635 18.23 Q 17.702 18.111 17.702 17.963 Q 17.702 17.813 17.635 17.696 Q 17.569 17.578 17.454 17.51 Q 17.339 17.441 17.194 17.441 Q 17.052 17.441 16.937 17.51 Q 16.822 17.578 16.757 17.696 Q 16.692 17.813 16.692 17.963 Q 16.692 18.111 16.757 18.23 Q 16.822 18.348 16.937 18.416 Q 17.052 18.483 17.194 18.483 Z" style="fill: rgb(51, 51, 51); white-space: pre;"/>
  <path d="M 18.365 19.231 Q 18.32 19.231 18.293 19.205 Q 18.267 19.178 18.267 19.133 L 18.267 17.953 Q 18.27 17.758 18.361 17.602 Q 18.452 17.446 18.608 17.356 Q 18.765 17.266 18.96 17.266 Q 19.16 17.266 19.317 17.357 Q 19.475 17.448 19.566 17.606 Q 19.657 17.763 19.657 17.963 Q 19.657 18.161 19.568 18.318 Q 19.48 18.476 19.327 18.567 Q 19.175 18.658 18.982 18.658 Q 18.815 18.658 18.678 18.587 Q 18.542 18.516 18.46 18.398 L 18.46 19.133 Q 18.46 19.178 18.433 19.205 Q 18.407 19.231 18.365 19.231 Z M 18.96 18.483 Q 19.105 18.483 19.22 18.416 Q 19.335 18.348 19.401 18.23 Q 19.467 18.111 19.467 17.963 Q 19.467 17.813 19.401 17.696 Q 19.335 17.578 19.22 17.51 Q 19.105 17.441 18.96 17.441 Q 18.817 17.441 18.702 17.51 Q 18.587 17.578 18.522 17.696 Q 18.457 17.813 18.457 17.963 Q 18.457 18.111 18.522 18.23 Q 18.587 18.348 18.702 18.416 Q 18.817 18.483 18.96 18.483 Z" style="fill: rgb(51, 51, 51); white-space: pre;"/>
  <path d="M 20.197 19.241 Q 20.177 19.241 20.152 19.231 Q 20.067 19.193 20.105 19.111 L 20.912 17.331 Q 20.95 17.251 21.032 17.286 Q 21.117 17.321 21.08 17.403 L 20.27 19.183 Q 20.245 19.241 20.197 19.241 Z M 20.475 18.603 Q 20.437 18.621 20.405 18.61 Q 20.372 18.598 20.352 18.561 L 19.795 17.406 Q 19.777 17.368 19.79 17.336 Q 19.802 17.303 19.84 17.286 Q 19.877 17.268 19.91 17.28 Q 19.942 17.291 19.96 17.328 L 20.507 18.483 Q 20.527 18.521 20.52 18.553 Q 20.512 18.586 20.475 18.603 Z" style="fill: rgb(51, 51, 51); white-space: pre;"/>
</svg>