<?xml version="1.0" encoding="utf-8"?>
<svg xmlns="http://www.w3.org/2000/svg">
    <symbol id="logo" viewBox="6 8 12 12">
        <path fill="#d64e4e"
              d="M5.816 14.627q-.624 0-1.124-.288-.5-.288-.792-.788-.292-.5-.3-1.124V8.651q0-.144.084-.228.084-.084.228-.084.136 0 .22.084.084.084.084.228v2.352q.264-.376.7-.604.436-.228.972-.228.616 0 1.104.292.488.292.772.796.284.504.284 1.136 0 .64-.292 1.144-.292.504-.796.796-.504.292-1.144.292Zm0-.56q.464 0 .832-.22.368-.22.58-.596.212-.376.212-.856 0-.472-.212-.852t-.58-.596q-.368-.216-.832-.216-.456 0-.824.216-.368.216-.576.596-.208.38-.208.852 0 .48.208.856t.576.596q.368.22.824.22ZM10.192 14.587q-.32 0-.572-.176-.252-.176-.392-.488t-.14-.72v-4.56q0-.136.084-.22.084-.084.22-.084t.22.084q.084.084.084.22v4.56q0 .344.14.56.14.216.356.216h.2q.12 0 .192.084.072.084.072.22t-.1.22q-.1.084-.26.084ZM13.41 14.635q-.568 0-1.016-.236-.448-.236-.708-.692-.26-.456-.26-1.112v-2.08q0-.128.088-.216t.216-.088q.136 0 .224.088t.088.216v2.08q0 .496.188.816.188.32.512.48.324.16.732.16.392 0 .708-.152.316-.152.5-.416t.184-.6h.44q-.024.504-.276.9t-.676.624q-.424.228-.944.228Zm1.76-.048q-.136 0-.22-.084-.084-.084-.084-.228v-3.76q0-.136.084-.22.084-.084.22-.084t.224.084q.088.084.088.22v3.76q0 .144-.088.228-.088.084-.224.084ZM18.904 14.627q-.648 0-1.148-.284-.5-.284-.784-.788-.284-.504-.284-1.152 0-.656.268-1.156.268-.5.74-.788.472-.288 1.088-.288.608 0 1.06.276.452.276.7.764.248.488.248 1.112 0 .128-.08.204-.08.076-.208.076h-3.4v-.512h3.464l-.344.248q.008-.464-.168-.832-.176-.368-.5-.576-.324-.208-.772-.208-.456 0-.8.216-.344.216-.532.596-.188.38-.188.868t.212.864q.212.376.58.592.368.216.848.216.288 0 .58-.1t.468-.252q.088-.072.2-.076.112-.004.192.06.104.096.108.208.004.112-.092.192-.264.224-.672.372-.408.148-.784.148Z"
              style="white-space:pre"/>
        <path fill="currentColor"
              d="M12.253 18.658q-.148 0-.293-.05t-.235-.15q-.027-.03-.022-.067.005-.038.037-.065.035-.025.073-.02.037.005.062.032.06.07.159.108.099.037.219.037.185 0 .267-.063.083-.064.085-.154 0-.09-.085-.149t-.28-.091q-.252-.04-.37-.14-.117-.1-.117-.238 0-.127.067-.212.068-.085.18-.128.113-.042.248-.042.167 0 .288.057.122.058.197.155.025.033.02.068-.005.035-.04.057-.03.018-.069.012-.039-.007-.066-.037-.063-.072-.145-.106-.083-.034-.19-.034-.138 0-.22.057-.083.056-.083.141 0 .057.031.1.032.042.108.075.076.032.214.055.187.03.296.089.109.058.155.137.046.079.046.171 0 .118-.069.207-.068.088-.19.138-.121.05-.278.05ZM14.291 18.646q-.042 0-.07-.028-.027-.027-.027-.067v-.65q0-.155-.059-.255t-.16-.15q-.101-.05-.229-.05-.122 0-.221.047-.099.048-.156.13-.058.083-.058.188h-.137q.005-.158.085-.281.08-.124.212-.195.133-.072.295-.072.178 0 .318.074t.221.216q.081.143.081.348v.65q0 .04-.027.067-.028.028-.068.028Zm-1.075 0q-.045 0-.071-.026-.026-.027-.026-.069v-1.175q0-.045.026-.071.026-.027.071-.027.043 0 .069.027.026.026.026.071v1.175q0 .042-.026.069-.026.026-.069.026ZM15.417 18.658q-.193 0-.345-.091-.153-.091-.242-.249-.088-.157-.088-.355 0-.2.091-.357.091-.158.249-.249.157-.091.355-.091.197 0 .353.091.157.091.248.249.091.157.094.357l-.078.06q0 .18-.084.324-.083.144-.227.228-.144.083-.326.083Zm.02-.175q.145 0 .258-.067.114-.068.18-.186.067-.119.067-.267 0-.15-.067-.267-.066-.118-.18-.186-.113-.069-.258-.069-.143 0-.258.069-.115.068-.182.186-.068.117-.068.267 0 .148.068.267.067.118.182.186.115.067.258.067Zm.597.163q-.042 0-.07-.026-.027-.027-.027-.069v-.428l.047-.197.148.037v.588q0 .042-.028.069-.027.026-.07.026ZM16.599 19.231q-.045 0-.071-.026-.026-.027-.026-.072v-1.18q.002-.195.093-.351.092-.156.248-.246t.351-.09q.2 0 .358.091.157.091.248.249.092.157.092.357 0 .198-.089.355-.089.158-.241.249-.153.091-.345.091-.168 0-.304-.071-.136-.071-.219-.189v.735q0 .045-.026.072-.026.026-.069.026Zm.595-.748q.145 0 .26-.067.115-.068.181-.186.067-.119.067-.267 0-.15-.067-.267-.066-.118-.181-.186-.115-.069-.26-.069-.142 0-.257.069-.115.068-.18.186-.065.117-.065.267 0 .148.065.267.065.118.18.186.115.067.257.067ZM18.365 19.231q-.045 0-.072-.026-.026-.027-.026-.072v-1.18q.003-.195.094-.351.091-.156.247-.246.157-.09.352-.09.2 0 .357.091.158.091.249.249.091.157.091.357 0 .198-.089.355-.088.158-.241.249-.152.091-.345.091-.167 0-.304-.071-.136-.071-.218-.189v.735q0 .045-.027.072-.026.026-.068.026Zm.595-.748q.145 0 .26-.067.115-.068.181-.186.066-.119.066-.267 0-.15-.066-.267-.066-.118-.181-.186-.115-.069-.26-.069-.143 0-.258.069-.115.068-.18.186-.065.117-.065.267 0 .148.065.267.065.118.18.186.115.067.258.067ZM20.197 19.241q-.02 0-.045-.01-.085-.038-.047-.12l.807-1.78q.038-.08.12-.045.085.035.048.117l-.81 1.78q-.025.058-.073.058Zm.278-.638q-.038.018-.07.007-.033-.012-.053-.049l-.557-1.155q-.018-.038-.005-.07.012-.033.05-.05.037-.018.07-.006.032.011.05.048l.547 1.155q.02.038.013.07-.008.033-.045.05Z"
              style="white-space:pre"/>
    </symbol>
</svg>

